<?xml version="1.0" standalone="no"?>
<!DOCTYPE svg PUBLIC "-//W3C//DTD SVG 20010904//EN"
 "http://www.w3.org/TR/2001/REC-SVG-20010904/DTD/svg10.dtd">
<svg version="1.0" xmlns="http://www.w3.org/2000/svg"
 width="1176.000000pt" height="374.000000pt" viewBox="0 0 1176.000000 374.000000"
 preserveAspectRatio="xMidYMid meet">
<metadata>
Created by potrace 1.15, written by Peter Selinger 2001-2017
</metadata>
<g transform="translate(0.000000,374.000000) scale(0.100000,-0.100000)"
fill="#000000" stroke="none">
<path d="M0 1870 l0 -1870 5880 0 5880 0 0 1870 0 1870 -5880 0 -5880 0 0
-1870z m4305 880 c139 -67 174 -206 115 -458 -11 -48 -27 -116 -35 -152 -149
-652 -165 -712 -214 -809 -28 -54 -114 -128 -164 -141 -94 -24 -92 -23 -95
-73 -3 -43 -1 -47 23 -53 14 -3 50 -3 81 1 51 6 55 5 51 -12 -3 -10 -11 -46
-18 -80 -17 -93 -23 -97 -123 -102 -103 -4 -162 19 -197 75 -19 31 -21 45 -16
112 3 42 9 89 13 103 5 24 2 28 -25 34 -45 10 -108 86 -128 154 -27 93 -13
207 62 516 17 68 80 347 101 445 58 269 106 365 213 423 68 37 119 47 224 42
63 -3 101 -10 132 -25z m4080 6 c50 -21 91 -60 117 -110 27 -53 27 -152 0
-277 -35 -160 -25 -149 -138 -149 l-96 0 5 28 c2 15 17 79 32 143 30 127 29
156 -10 195 -49 49 -129 21 -161 -54 -15 -35 -86 -318 -188 -752 -26 -107 -50
-211 -55 -230 -21 -79 -22 -117 -7 -154 27 -65 112 -73 160 -15 26 30 32 49
98 284 l33 120 103 3 c56 1 102 -1 102 -5 0 -3 -7 -34 -14 -67 -88 -369 -101
-401 -178 -471 -60 -54 -133 -79 -233 -80 -130 0 -227 50 -270 142 -23 48 -16
233 13 348 11 44 36 148 56 230 131 553 155 642 189 710 45 92 107 146 197
172 58 17 193 11 245 -11z m2445 13 c25 -5 62 -21 82 -34 83 -55 95 -142 46
-355 l-33 -145 -93 -3 c-108 -3 -102 -14 -68 132 35 148 39 181 25 208 -16 31
-28 38 -70 38 -25 0 -42 -7 -58 -24 -28 -30 -69 -167 -77 -261 l-7 -70 68
-130 c38 -72 84 -159 102 -195 51 -99 61 -174 40 -312 -47 -312 -131 -428
-327 -454 -67 -9 -191 20 -230 53 -52 43 -74 98 -74 178 0 59 27 202 62 330
l8 30 87 3 c66 2 89 -1 92 -11 3 -7 -8 -73 -25 -147 -38 -172 -39 -221 -4
-249 48 -38 114 -20 144 38 26 52 63 235 64 316 1 68 -1 74 -58 175 -155 273
-164 299 -146 445 21 167 60 288 115 353 70 84 206 121 335 91z m-9215 -55
c-3 -25 -13 -67 -21 -94 l-15 -50 -166 -2 -166 -3 -14 -50 c-11 -43 -76 -318
-90 -382 l-5 -23 151 0 c137 0 151 -2 151 -17 -1 -26 -34 -156 -43 -170 -6
-10 -49 -13 -156 -13 l-147 0 -12 -47 c-6 -27 -25 -109 -42 -183 -17 -74 -37
-160 -44 -190 -8 -30 -27 -110 -42 -177 l-29 -123 -107 0 c-60 0 -108 2 -108
4 0 6 37 167 55 241 8 33 35 150 60 260 25 110 52 227 60 260 8 33 44 188 80
345 36 157 75 324 87 373 l20 87 275 0 275 0 -7 -46z m805 16 c90 -51 110
-141 70 -317 -44 -188 -71 -285 -90 -323 -24 -46 -74 -87 -119 -96 -43 -9 -45
-16 -11 -39 34 -23 66 -76 75 -125 5 -30 -35 -256 -50 -280 -7 -11 -45 -288
-45 -325 l0 -35 -106 0 -107 0 6 113 c4 68 18 169 38 257 17 80 33 174 36 210
5 84 -18 117 -91 131 -71 13 -79 5 -104 -108 -12 -54 -30 -134 -40 -178 -11
-44 -36 -154 -56 -245 -21 -91 -41 -169 -45 -173 -4 -4 -53 -6 -108 -5 l-100
3 18 80 c10 44 28 121 40 170 49 209 60 260 104 450 47 205 62 271 89 385 9
36 29 124 45 195 16 72 38 165 48 208 l17 78 221 -3 c213 -3 221 -4 265 -28z
m1066 -2 c-3 -18 -12 -60 -19 -93 l-13 -60 -152 -3 c-131 -2 -152 -5 -152 -18
0 -9 -11 -64 -26 -123 -39 -163 -62 -263 -69 -298 l-7 -33 131 0 c150 0 142 8
116 -104 -24 -105 -10 -96 -160 -96 l-132 0 -33 -137 c-18 -76 -45 -190 -60
-253 -15 -63 -26 -118 -23 -122 2 -5 79 -8 169 -8 l166 0 -7 -42 c-4 -24 -11
-50 -15 -58 -4 -8 -10 -32 -14 -52 l-7 -38 -278 0 -279 0 19 82 c32 141 89
389 110 478 10 47 28 123 39 170 32 142 74 322 119 515 48 206 64 272 68 298
l5 27 255 0 256 0 -7 -32z m1651 5 c-3 -16 -14 -68 -26 -118 -12 -49 -30 -128
-41 -175 -11 -47 -29 -125 -41 -175 -11 -49 -27 -117 -34 -150 -7 -33 -24
-109 -39 -170 -14 -60 -37 -159 -51 -220 -65 -275 -67 -292 -49 -331 20 -41
54 -58 102 -50 78 12 91 43 182 446 17 74 42 185 56 245 14 61 32 137 39 170
21 91 49 213 89 387 20 87 36 160 36 163 0 7 205 6 212 -1 3 -3 0 -29 -8 -57
-7 -29 -30 -124 -50 -212 -52 -230 -102 -448 -123 -540 -11 -44 -35 -152 -55
-240 -68 -303 -91 -374 -140 -432 -51 -61 -134 -97 -252 -109 -49 -5 -78 -2
-135 16 -168 50 -211 169 -150 411 10 41 26 108 35 149 10 41 28 122 42 180
13 58 33 143 43 190 11 47 41 175 66 285 25 110 53 232 61 270 9 39 18 76 20
83 2 8 33 12 110 12 l106 0 -5 -27z m1358 -19 c-3 -25 -13 -67 -21 -94 l-15
-49 -146 -3 -147 -3 -12 -50 c-6 -27 -21 -90 -32 -140 -12 -49 -31 -130 -42
-179 -12 -48 -20 -90 -18 -92 2 -2 59 -4 127 -5 97 -1 124 -4 128 -16 3 -8 -3
-51 -14 -96 l-19 -82 -135 -3 -135 -3 -16 -67 c-9 -37 -29 -121 -44 -187 -14
-66 -33 -142 -40 -169 -8 -27 -14 -60 -14 -73 l0 -23 165 0 c125 0 165 -3 165
-12 -1 -14 -15 -82 -31 -140 l-10 -38 -280 0 c-264 0 -281 1 -274 18 3 9 17
64 30 122 43 189 85 374 100 435 8 33 44 188 80 345 36 157 70 303 75 325 5
22 24 101 41 175 17 74 33 138 35 142 3 5 118 8 256 8 l250 0 -7 -46z m597
-374 c8 -472 18 -701 28 -655 4 17 19 84 33 150 15 66 36 163 47 215 29 131
58 268 81 375 17 80 49 230 66 308 l6 27 95 0 95 0 -6 -32 c-6 -30 -14 -67
-62 -268 -7 -30 -31 -134 -54 -230 -23 -96 -46 -191 -51 -210 -5 -19 -33 -134
-61 -255 -29 -121 -60 -254 -70 -295 -9 -41 -27 -117 -39 -169 -11 -52 -23
-98 -26 -103 -3 -4 -52 -8 -109 -8 l-103 0 -6 93 c-3 50 -8 289 -11 529 -3
240 -8 444 -12 454 -6 15 -223 -1029 -223 -1073 0 -2 -45 -3 -100 -3 -55 0
-100 4 -100 8 0 10 25 122 101 447 12 50 29 126 39 170 20 89 49 217 79 345
63 270 94 405 112 485 11 50 22 96 24 103 3 9 32 12 112 10 l108 -3 7 -415z
m2118 407 c0 -7 -9 -49 -19 -93 -32 -128 -57 -236 -106 -449 -25 -110 -55
-238 -66 -285 -11 -47 -26 -112 -34 -145 -7 -33 -23 -98 -34 -145 -11 -47 -39
-165 -62 -262 l-42 -178 -103 0 c-103 0 -104 0 -99 22 2 13 16 75 30 138 14
63 32 142 40 175 8 33 35 150 60 260 25 110 55 237 65 283 11 45 29 121 40
170 12 48 27 114 35 147 8 33 25 112 40 175 14 63 30 134 37 158 l11 42 103 0
c79 0 104 -3 104 -13z m930 3 c0 -6 -7 -36 -15 -68 -8 -31 -17 -69 -20 -84
l-5 -28 -148 0 -148 0 -23 -97 c-12 -54 -33 -143 -46 -198 -13 -55 -27 -117
-30 -137 l-7 -38 131 0 c111 0 131 -2 131 -15 0 -9 -10 -54 -21 -100 l-21 -85
-135 0 c-98 0 -135 -3 -137 -12 -3 -7 -14 -58 -26 -113 -13 -55 -37 -163 -56
-240 -18 -76 -30 -143 -28 -147 3 -4 80 -8 171 -8 l165 0 -6 -22 c-3 -13 -13
-56 -23 -95 l-17 -73 -278 0 -278 0 4 22 c3 13 14 61 25 108 11 47 31 137 46
200 23 102 46 202 75 325 5 22 21 90 35 150 14 61 34 148 45 195 11 47 29 124
40 173 11 48 29 124 39 170 11 45 22 98 26 117 4 19 12 52 17 73 l11 37 254 0
c164 0 253 -4 253 -10z"/>
<path d="M4059 2587 c-38 -26 -64 -88 -98 -237 -12 -52 -31 -131 -41 -175 -10
-44 -31 -132 -45 -195 -59 -257 -66 -287 -81 -345 -9 -33 -18 -97 -21 -142 -6
-81 -5 -82 25 -112 25 -25 39 -31 74 -31 45 0 89 22 114 58 13 20 54 151 67
217 4 17 18 80 32 140 121 521 155 681 155 722 0 53 -23 91 -67 109 -46 20
-75 17 -114 -9z"/>
<path d="M2070 2433 c-27 -119 -60 -264 -75 -326 -3 -18 3 -19 81 -15 83 3 86
4 118 39 28 30 38 56 65 168 58 238 48 271 -84 271 l-73 0 -32 -137z"/>
</g>
</svg>
