<?xml version="1.0" standalone="no"?>
<!DOCTYPE svg PUBLIC "-//W3C//DTD SVG 20010904//EN"
 "http://www.w3.org/TR/2001/REC-SVG-20010904/DTD/svg10.dtd">
<svg version="1.0" xmlns="http://www.w3.org/2000/svg"
 width="1176.000000pt" height="374.000000pt" viewBox="0 0 1176.000000 374.000000"
 preserveAspectRatio="xMidYMid meet">

<g transform="translate(0.000000,374.000000) scale(0.100000,-0.100000)"
fill="#000000" stroke="none">
<path d="M4042 2770 c-60 -13 -139 -58 -173 -100 -39 -46 -75 -124 -95 -202
-16 -64 -23 -96 -88 -383 -20 -88 -43 -187 -51 -220 -63 -261 -69 -292 -69
-400 0 -81 4 -120 16 -146 24 -54 84 -117 120 -124 26 -6 29 -10 24 -34 -4
-14 -10 -61 -13 -103 -5 -67 -3 -81 16 -112 35 -56 94 -79 197 -75 100 5 106
9 123 102 7 34 15 70 18 80 4 17 0 18 -51 12 -31 -4 -67 -4 -81 -1 -24 6 -26
10 -23 53 3 50 1 49 94 72 49 13 125 77 159 134 51 89 67 148 220 817 8 36 24
104 35 152 59 252 24 391 -115 458 -50 24 -191 35 -263 20z m131 -174 c18 -7
41 -25 50 -39 33 -51 29 -71 -138 -792 -14 -60 -28 -123 -32 -140 -13 -66 -54
-197 -67 -217 -25 -36 -69 -58 -114 -58 -35 0 -49 6 -74 31 -30 30 -31 31 -25
112 3 45 12 109 21 142 15 58 22 88 81 345 14 63 35 151 45 195 10 44 29 123
41 175 34 149 60 211 98 237 39 26 68 29 114 9z"/>
<path d="M8140 2767 c-90 -26 -152 -80 -197 -172 -34 -69 -49 -125 -184 -690
-23 -93 -50 -206 -61 -250 -29 -115 -36 -300 -13 -348 43 -92 140 -142 270
-142 100 1 173 26 233 80 77 69 90 103 172 446 11 48 20 90 20 93 0 4 -46 5
-102 4 l-103 -3 -32 -115 c-18 -63 -42 -149 -53 -190 -32 -112 -90 -159 -163
-131 -54 21 -66 87 -36 201 5 19 29 123 55 230 102 434 173 717 188 752 32 75
112 103 161 54 39 -39 40 -68 10 -195 -15 -64 -30 -128 -32 -143 l-5 -28 96 0
c113 0 103 -11 137 149 28 126 28 225 1 277 -26 50 -67 89 -117 110 -52 22
-187 28 -245 11z"/>
<path d="M10640 2766 c-85 -22 -149 -75 -189 -155 -26 -51 -58 -181 -71 -286
-17 -144 -3 -188 135 -425 66 -113 78 -153 70 -228 -10 -86 -43 -232 -62 -275
-28 -64 -97 -86 -147 -46 -35 28 -34 77 4 249 17 74 28 140 25 147 -3 10 -26
13 -92 11 l-87 -3 -8 -30 c-35 -128 -62 -271 -62 -330 0 -80 22 -135 74 -178
39 -33 163 -62 230 -53 196 26 280 143 327 454 21 138 11 213 -40 312 -18 36
-64 123 -102 195 l-68 130 7 70 c8 94 49 231 77 261 16 17 33 24 58 24 42 0
54 -7 70 -38 14 -27 10 -60 -25 -208 -34 -146 -40 -135 68 -132 l93 3 33 145
c49 213 37 300 -46 355 -66 43 -179 56 -272 31z"/>
<path d="M1052 2673 c-12 -49 -51 -216 -87 -373 -36 -157 -72 -312 -80 -345
-8 -33 -35 -150 -60 -260 -25 -110 -52 -227 -60 -260 -18 -74 -55 -235 -55
-241 0 -2 48 -4 108 -4 l107 0 29 123 c15 67 34 147 42 177 7 30 27 116 44
190 17 74 36 156 42 183 l12 47 147 0 c107 0 150 3 156 13 9 14 42 144 43 170
0 15 -14 17 -151 17 l-151 0 5 23 c14 64 79 339 90 382 l14 50 166 3 166 2 15
50 c8 27 18 69 21 94 l7 46 -275 0 -275 0 -20 -87z"/>
<path d="M1917 2683 c-10 -43 -32 -136 -48 -208 -16 -71 -36 -159 -45 -195
-27 -112 -42 -179 -89 -385 -25 -110 -55 -238 -66 -285 -11 -47 -37 -159 -58
-250 l-38 -165 100 -3 c55 -1 104 1 108 5 4 4 24 82 45 173 20 91 45 201 56
245 10 44 28 124 40 178 24 113 32 121 104 108 73 -14 96 -47 91 -131 -3 -36
-19 -130 -36 -210 -20 -88 -34 -189 -38 -257 l-6 -113 107 0 106 0 0 35 c0 37
38 314 45 325 15 24 55 250 50 280 -9 49 -41 102 -75 125 -34 23 -32 30 11 39
45 9 95 50 119 96 19 38 46 135 90 323 40 176 20 266 -70 317 -44 24 -52 25
-265 28 l-221 3 -17 -78z m354 -132 c32 -26 29 -82 -12 -253 -27 -111 -37
-137 -65 -167 -32 -35 -34 -36 -118 -39 -78 -4 -84 -3 -81 15 15 62 48 207 75
326 l32 137 73 0 c57 0 78 -4 96 -19z"/>
<path d="M2977 2733 c-4 -26 -20 -92 -68 -298 -45 -193 -87 -373 -119 -515
-11 -47 -29 -123 -39 -170 -21 -89 -78 -337 -110 -478 l-19 -82 279 0 278 0 7
38 c4 20 10 44 14 52 4 8 11 34 15 58 l7 42 -166 0 c-90 0 -167 4 -170 8 -3 5
1 31 9 58 7 27 23 92 35 144 11 52 33 143 47 203 l25 107 133 0 c150 0 136 -9
160 96 26 113 34 105 -110 103 -69 -1 -128 0 -131 3 -4 5 14 93 57 273 10 44
24 106 31 137 l11 57 151 3 150 3 13 60 c7 33 16 75 19 93 l7 32 -256 0 -255
0 -5 -27z"/>
<path d="M4926 2748 c-2 -7 -11 -44 -20 -83 -8 -38 -36 -160 -61 -270 -25
-110 -55 -238 -66 -285 -10 -47 -30 -132 -43 -190 -14 -58 -32 -139 -42 -180
-9 -41 -25 -108 -35 -149 -61 -242 -18 -361 150 -411 57 -18 86 -21 135 -16
118 12 201 48 252 109 49 58 72 129 140 432 20 88 44 196 55 240 21 92 71 310
123 540 20 88 43 183 50 212 8 28 11 54 8 57 -7 7 -212 8 -212 1 0 -2 -16 -75
-36 -162 -71 -312 -116 -509 -135 -588 -10 -44 -32 -141 -49 -215 -92 -404
-104 -434 -182 -446 -48 -8 -82 9 -102 50 -18 39 -16 56 49 331 14 61 37 160
51 220 15 61 32 137 39 170 7 33 23 101 34 150 12 50 30 128 41 175 11 47 29
126 41 175 12 50 23 102 26 118 l5 27 -106 0 c-77 0 -108 -4 -110 -12z"/>
<path d="M5996 2752 c-2 -4 -18 -68 -35 -142 -17 -74 -36 -153 -41 -175 -5
-22 -39 -168 -75 -325 -36 -157 -72 -312 -80 -345 -15 -61 -57 -246 -100 -435
-13 -58 -27 -113 -30 -122 -7 -17 10 -18 274 -18 l280 0 10 38 c16 58 30 126
31 140 0 9 -40 12 -165 12 l-165 0 0 23 c0 13 6 46 14 73 7 27 26 103 40 169
15 66 35 150 44 187 l16 67 135 3 135 3 19 82 c11 45 17 88 14 96 -4 11 -33
14 -128 16 -68 1 -125 4 -127 6 -2 1 6 43 18 91 11 49 30 130 42 179 11 50 26
113 32 140 l12 50 147 3 146 3 15 49 c8 27 18 69 21 94 l7 46 -250 0 c-138 0
-253 -3 -256 -8z"/>
<path d="M6865 2748 c-2 -7 -13 -53 -24 -103 -18 -80 -49 -215 -112 -485 -30
-128 -59 -256 -79 -345 -10 -44 -27 -120 -39 -170 -76 -325 -101 -437 -101
-447 0 -4 45 -8 100 -8 55 0 100 1 100 3 0 9 34 184 55 287 15 69 33 159 41
200 53 287 122 601 127 586 4 -9 9 -214 12 -454 3 -240 8 -479 11 -529 l6 -93
103 0 c57 0 106 4 109 8 3 5 15 51 26 103 12 52 30 128 39 169 10 41 41 174
70 295 28 121 56 236 61 255 5 19 35 143 66 275 87 367 94 398 101 433 l6 32
-95 0 -94 0 -16 -72 c-9 -40 -26 -118 -38 -173 -11 -55 -27 -129 -35 -165 -8
-36 -26 -119 -40 -185 -14 -66 -32 -149 -40 -185 -16 -72 -61 -283 -68 -315
-7 -37 -18 268 -25 680 l-7 410 -108 3 c-80 2 -109 -1 -112 -10z"/>
<path d="M8992 2718 c-7 -24 -23 -95 -37 -158 -14 -63 -32 -142 -40 -175 -8
-33 -23 -99 -35 -147 -11 -49 -29 -125 -40 -170 -11 -46 -36 -155 -56 -243
-20 -88 -45 -196 -55 -240 -10 -44 -32 -141 -49 -215 -16 -74 -32 -145 -35
-158 -5 -22 -4 -22 99 -22 l103 0 42 178 c23 97 51 215 62 262 11 47 27 112
34 145 8 33 23 98 34 145 11 47 41 175 66 285 49 213 74 321 106 449 10 44 19
86 19 93 0 10 -25 13 -104 13 l-103 0 -11 -42z"/>
<path d="M9622 2723 c-5 -21 -13 -54 -17 -73 -6 -32 -22 -103 -60 -265 -27
-116 -65 -281 -85 -370 -12 -49 -27 -117 -35 -150 -32 -135 -55 -236 -80 -345
-15 -63 -35 -153 -46 -200 -11 -47 -22 -95 -25 -108 l-4 -22 278 0 278 0 17
73 c10 39 20 82 23 95 l6 22 -165 0 c-91 0 -168 4 -171 8 -2 4 10 71 28 147
19 77 43 185 56 240 12 55 23 106 26 113 2 9 39 12 137 12 l135 0 21 85 c32
127 42 117 -110 113 l-131 -3 7 44 c4 24 15 75 25 115 9 39 30 126 45 194 l28
122 149 0 148 0 5 28 c4 15 13 55 21 89 8 34 14 65 14 68 0 3 -114 5 -253 5
l-254 0 -11 -37z"/>
</g>
</svg>
